IKResults
version=1
nRows=16
nColumns=40
inDegrees=yes

Units are S.I. units (second, meters, Newtons, ...)
Angles are in degrees.

endheader
time	pelvis_tilt	pelvis_list	pelvis_rotation	pelvis_tx	pelvis_ty	pelvis_tz	hip_flexion_r	hip_adduction_r	hip_rotation_r	knee_angle_r	knee_angle_r_beta	ankle_angle_r	subtalar_angle_r	mtp_angle_r	hip_flexion_l	hip_adduction_l	hip_rotation_l	knee_angle_l	knee_angle_l_beta	ankle_angle_l	subtalar_angle_l	mtp_angle_l	lumbar_extension	lumbar_bending	lumbar_rotation	arm_flex_r	arm_add_r	arm_rot_r	elbow_flex_r	pro_sup_r	wrist_flex_r	wrist_dev_r	arm_flex_l	arm_add_l	arm_rot_l	elbow_flex_l	pro_sup_l	wrist_flex_l	wrist_dev_l
      1.66000000	     17.66088431	     -1.14227151	      2.97297985	     -0.04041411	      0.95674372	     -0.98830093	    -17.64525906	      3.61121305	    -19.10525735	    -10.54786735	     -0.18409501	      6.30180655	      2.98459970	     -5.69238962	     -8.24935278	      3.73503169	      6.41267596	    -43.41294416	     -0.75769881	     11.26097504	     18.08931150	      9.76317066	    -25.36479726	      1.47084962	     -0.63229511	      2.00983139	    -10.72894985	      0.89515206	     23.70088508	     89.95437384	      0.00000000	      0.00000000	      3.53304677	      8.11580399	      9.06984810	     21.31820587	     89.95437384	      0.00000000	      0.00000000
      1.67000000	     17.72490139	     -0.96269162	      2.78872182	     -0.03429068	      0.95678380	     -0.98728775	    -18.26520275	      3.49317783	    -18.90094864	    -10.30671362	     -0.17988609	      6.56777447	      3.18599837	     -5.26462742	     -7.73038577	      3.54898686	      6.92508722	    -42.08514290	     -0.73452431	     11.87401393	     17.90196968	      9.15757564	    -25.45377853	      1.16945408	     -0.31311837	      2.00097409	    -10.81190545	      0.98777545	     24.19541263	     89.95437384	      0.00000000	      0.00000000	      3.13813361	      8.09837172	      9.41354564	     21.09831666	     89.95437384	      0.00000000	      0.00000000
      1.68000000	     17.82722715	     -0.79325121	      2.60510158	     -0.02821062	      0.95677263	     -0.98628102	    -18.88005594	      3.38179900	    -18.68871524	    -10.14872240	     -0.17712862	      6.85193590	      2.94627256	     -4.68707445	     -7.27772951	      3.27555080	      7.20798497	    -40.69528812	     -0.71026677	     12.04647655	     17.88339742	      8.37404190	    -25.58707443	      0.87042537	     -0.06306115	      2.06090675	    -10.91383491	      1.28353023	     24.62830449	     89.95437384	      0.00000000	      0.00000000	      2.62992535	      8.10639507	      9.71310137	     21.00087466	     89.95437384	      0.00000000	      0.00000000
      1.69000000	     17.81065181	     -0.64952883	      2.42262543	     -0.02209620	      0.95651674	     -0.98535246	    -19.33896277	      3.24919933	    -18.66758448	    -10.02130960	     -0.17490485	      7.18735407	      3.14433537	     -4.59185831	     -6.68997155	      3.07253399	      7.66732818	    -39.30317788	     -0.68596986	     12.25459032	     17.72052512	      8.16054802	    -25.57528508	      0.60255607	      0.25216040	      2.02587519	    -11.01305016	      1.45872031	     25.13387925	     89.95437384	      0.00000000	      0.00000000	      2.29760328	      8.00525641	     10.35388565	     20.58376018	     89.95437384	      0.00000000	      0.00000000
      1.70000000	     17.79449129	     -0.51890756	      2.26415764	     -0.01602745	      0.95619619	     -0.98448563	    -19.78591808	      3.12597772	    -18.71069471	     -9.94546590	     -0.17358113	      7.48928151	      3.40936558	     -4.51904480	     -6.10165722	      2.88289167	      8.13902715	    -37.90002892	     -0.66148029	     12.40463047	     17.51601616	      7.85333730	    -25.58140063	      0.35344520	      0.53169019	      1.98791353	    -11.13120790	      1.66333321	     25.68408051	     89.95437384	      0.00000000	      0.00000000	      1.91252583	      7.95202878	     10.82256523	     20.24480655	     89.95437384	      0.00000000	      0.00000000
      1.71000000	     17.53770655	     -0.59484834	      1.97555140	     -0.01035401	      0.95546574	     -0.98327780	    -19.83794305	      3.16889375	    -18.33011242	    -10.05485728	     -0.17549037	      7.91155856	      3.72856179	     -4.40784737	     -5.21276339	      2.97050506	      8.95370365	    -36.53897909	     -0.63772549	     12.57854643	     17.14600860	      7.34595487	    -25.36630223	      0.24831388	      1.03933907	      1.95560504	    -11.25319375	      1.76771477	     26.22620440	     89.95437384	      0.00000000	      0.00000000	      1.65671174	      7.85079669	     11.35034034	     19.76236549	     89.95437384	      0.00000000	      0.00000000
      1.72000000	     17.80799225	     -0.29711541	      1.72857740	     -0.00383945	      0.95548576	     -0.98257537	    -20.68949498	      2.85053315	    -18.31689080	     -9.85990914	     -0.17208788	      8.05376236	      3.59988635	     -4.30782540	     -5.16941393	      2.55693501	      9.56970227	    -34.76550562	     -0.60677254	     12.47775100	     16.59934336	      6.76563153	    -25.62721070	     -0.18496619	      1.26325033	      1.88185256	    -11.36727793	      2.09065385	     26.82853604	     89.95437384	      0.00000000	      0.00000000	      1.14351101	      7.81346051	     11.73055924	     19.51440255	     89.95437384	      0.00000000	      0.00000000
      1.73000000	     17.64115159	     -0.21653008	      1.58463014	      0.00217582	      0.95471670	     -0.98187325	    -20.92548605	      2.75476788	    -18.17733879	     -9.87530554	     -0.17235660	      8.48507398	      3.81500814	     -4.35478008	     -4.43500140	      2.42643637	     10.13832374	    -33.33079883	     -0.58173218	     12.57314223	     15.77439362	      6.34864980	    -25.47060479	     -0.37342092	      1.55970909	      1.76523343	    -11.47403218	      2.15409779	     27.46864851	     89.95437384	      0.00000000	      0.00000000	      0.78265762	      7.73876954	     12.08615927	     19.11617977	     89.95437384	      0.00000000	      0.00000000
      1.74000000	     17.65591821	      0.00280631	      1.41794268	      0.00831817	      0.95428533	     -0.98134895	    -21.32747623	      2.47623890	    -18.22963512	     -9.96878909	     -0.17398819	      8.67934927	      3.81687859	     -4.47017479	     -4.03739926	      2.10903959	     10.75831048	    -31.62639259	     -0.55198468	     12.42078933	     14.76706186	      5.72259729	    -25.51418281	     -0.69061562	      1.70180083	      1.76341651	    -11.54322365	      2.26641310	     27.97466015	     89.95437384	      0.00000000	      0.00000000	      0.37998286	      7.61917528	     12.86524374	     18.84047694	     89.95437384	      0.00000000	      0.00000000
      1.75000000	     17.57596584	      0.12582922	      1.34933362	      0.01447216	      0.95361986	     -0.98086681	    -21.64510212	      2.34030155	    -18.16836655	    -10.05572290	     -0.17550547	      8.97933391	      3.90747873	     -4.55082816	     -3.50604637	      1.93809907	     11.34619383	    -30.02010142	     -0.52394961	     12.26601618	     13.39545975	      5.03424854	    -25.44764363	     -0.89155072	      1.88524717	      1.68635903	    -11.61807831	      2.34953614	     28.49964887	     89.95437384	      0.00000000	      0.00000000	     -0.00933670	      7.52776096	     13.44811827	     18.54077771	     89.95437384	      0.00000000	      0.00000000
      1.76000000	     17.41934488	      0.22896351	      1.34051010	      0.02035931	      0.95276610	     -0.98043784	    -21.79412531	      2.23589825	    -18.15543188	    -10.22207485	     -0.17840886	      9.38429996	      3.93378741	     -4.60237876	     -2.81830472	      1.79775479	     11.94647757	    -28.49630165	     -0.49735429	     12.08406668	     11.98072583	      4.46090660	    -25.33917838	     -1.05676323	      1.92097115	      1.71499803	    -11.65057451	      2.43709998	     28.97676776	     89.95437384	      0.00000000	      0.00000000	     -0.45693570	      7.50336533	     13.48365966	     18.24720520	     89.95437384	      0.00000000	      0.00000000
      1.77000000	     17.52365169	      0.42642786	      1.04868276	      0.02681320	      0.95234565	     -0.97981820	    -22.28681404	      1.91728236	    -18.14571592	    -10.34170931	     -0.18049688	      9.65961421	      4.15155660	     -4.68933150	     -2.66736298	      1.60346439	     13.15270919	    -26.69830024	     -0.46597324	     11.42793305	      9.67472859	      3.45265733	    -25.45160186	     -1.41062584	      2.18895792	      1.65437636	    -11.69946735	      2.52319524	     29.47633537	     89.95437384	      0.00000000	      0.00000000	     -0.94333502	      7.44680133	     13.66599052	     18.03369734	     89.95437384	      0.00000000	      0.00000000
      1.78000000	     17.32080812	      0.49322761	      1.03756678	      0.03269617	      0.95142756	     -0.97952060	    -22.34822885	      1.84618594	    -18.00529512	    -10.61926613	     -0.18534116	     10.00751629	      4.06038021	     -4.71095801	     -1.98455512	      1.44187871	     13.59265141	    -25.14237716	     -0.43881726	     10.92672778	      8.05685234	      2.82964976	    -25.31027768	     -1.52751613	      2.21002435	      1.70507700	    -11.74115848	      2.60649392	     29.85798700	     89.95437384	      0.00000000	      0.00000000	     -1.34619749	      7.41540823	     13.62774112	     17.69338997	     89.95437384	      0.00000000	      0.00000000
      1.79000000	     17.44211197	      0.52805664	      0.80939835	      0.03939464	      0.95083452	     -0.97886248	    -22.87737439	      1.74795517	    -17.87274652	    -10.71526658	     -0.18701668	     10.22802621	      4.15291273	     -5.04752716	     -1.69302966	      1.68275238	     15.76203166	    -23.78833450	     -0.41518476	      9.93643732	      4.83991656	     -1.47003155	    -25.39775525	     -1.69579680	      2.47059956	      1.62133406	    -11.77928336	      2.70310295	     30.31628371	     89.95437384	      0.00000000	      0.00000000	     -1.90174303	      7.37118131	     13.57691425	     17.55502292	     89.95437384	      0.00000000	      0.00000000
      1.80000000	     17.26725089	      0.79411039	      0.81532157	      0.04526394	      0.94997553	     -0.97889231	    -22.96078593	      1.48250025	    -17.68194937	    -10.98759293	     -0.19176967	     10.67812734	      3.83103069	     -5.04755484	     -1.16875148	      1.16425766	     15.89015523	    -22.05992764	     -0.38501837	      9.32259556	      3.60460501	     -1.83802065	    -25.31113049	     -1.99510644	      2.40595338	      1.70706230	    -11.75086220	      2.70537514	     30.61492221	     89.95437384	      0.00000000	      0.00000000	     -2.21963162	      7.34917045	     13.51543175	     17.21509257	     89.95437384	      0.00000000	      0.00000000
      1.81000000	     17.03592060	      0.80500282	      0.93636266	      0.05132668	      0.94881734	     -0.97893443	    -22.98874169	      1.51063711	    -17.76621723	    -11.25176631	     -0.19638037	     10.92201061	      3.56853833	     -5.00363159	     -0.27717840	      1.09283782	     16.40120566	    -21.12813306	     -0.36875549	      9.07860094	      3.18681825	     -1.90842009	    -25.11368396	     -1.99354145	      2.27420369	      1.78053898	    -11.71963791	      2.70653060	     30.86710471	     89.95437384	      0.00000000	      0.00000000	     -2.69769411	      7.27798267	     13.43320532	     17.04570060	     89.95437384	      0.00000000	      0.00000000
